<?xml version="1.0" encoding="UTF-8"?>
<svg width="19px" height="19px" viewBox="0 0 19 19" version="1.1" xmlns="http://www.w3.org/2000/svg" xmlns:xlink="http://www.w3.org/1999/xlink">
    <!-- Generator: Sketch 47.1 (45422) - http://www.bohemiancoding.com/sketch -->
    <title>Fill 174</title>
    <desc>Created with Sketch.</desc>
    <defs></defs>
    <g id="Mockups" stroke="none" stroke-width="1" fill="none" fill-rule="evenodd" opacity="0.715975996">
        <g id="Home" transform="translate(-310.000000, -3293.000000)" fill="#FFFFFF">
            <g id="Group-2" transform="translate(0.000000, 2997.000000)">
                <g id="Group">
                    <g id="Group-11">
                        <g id="Group-10">
                            <path d="M325,310 L322.726456,310 L322.726456,306.204503 C322.726456,305.324578 322.397187,304.722639 321.574717,304.722639 C320.946581,304.722639 320.572879,305.12758 320.408245,305.519387 C320.348378,305.659475 320.332944,305.856473 320.332944,306.051282 L320.332944,310 L318.059867,310 L318.059867,305.337711 C318.059867,304.484053 318.030167,303.770482 318,303.153221 L319.974209,303.153221 L320.07921,304.105378 L320.123877,304.105378 C320.422978,303.65666 321.155881,303 322.382688,303 C323.878428,303 325,303.936836 325,305.952783 L325,310 Z M315.490725,301 C315.192483,301 315,300.776749 315,300.5 C315,300.217078 315.198796,300 315.503059,300 C315.807517,300 315.993882,300.217078 316,300.5 C316,300.776749 315.807517,301 315.490725,301 Z M315,310 L316,310 L316,303 L315,303 L315,310 Z M319.5,296 C314.253229,296 310,300.253229 310,305.5 C310,310.746771 314.253229,315 319.5,315 C324.746969,315 329,310.746771 329,305.5 C329,300.253229 324.746969,296 319.5,296 L319.5,296 Z" id="Fill-174"></path>
                        </g>
                    </g>
                </g>
            </g>
        </g>
    </g>
</svg>